<svg id="Capa_1" xmlns="http://www.w3.org/2000/svg" width="579" height="99.1"><style>.st0{fill:#fff}</style><path id="Path_69_1_" class="st0" d="M575.7 85.1c0 .2-.2.4-.2.6-.2 2.3-2.1 4.3-4.5 4.5-1.9.4-3.8.2-5.7-.4-1.7-.6-3-2.1-3.2-4h4.5c.2 0 .2.2.4.2.6.9 1.9 1.1 2.8.6.9-.4 1.1-1.5.9-3-1.3 1.3-3.2 1.7-4.9 1.1-1.9-.6-3.4-2.3-3.6-4.5-.4-2.3 0-4.7 1.1-6.8 1.3-2.1 4-3 6.4-1.5.4.2.9.4 1.1.9l.2.2c0-.4 0-.9.2-1.3h4.7v13.4h-.2zm-9.2-6.6c.2.6.2 1.3.4 1.9.2.9 1.1 1.3 1.9 1.3.9 0 1.5-.6 1.9-1.5.6-1.1.6-2.6 0-3.6-.4-.6-1.1-1.3-1.9-1.3-.9 0-1.5.4-1.9 1.3-.2.7-.2 1.3-.4 1.9z"/><path id="Path_70_1_" class="st0" d="M459 75.4c2.8 1.5 3.8 4.9 2.3 7.7-.6 1.5-2.1 2.8-4 2.8-3.8.2-7.7 0-11.5 0V66.6c-.2 0 0-.2 0-.2 3.6 0 7.2-.2 10.8.2 2.6.2 4.5 2.3 4.3 4.9 0 .4 0 .6-.2 1.1 0 1.3-.6 2.3-1.7 2.8zm-7.9 6.3h4c1.1 0 1.7-.9 1.7-1.9 0-1.1-.6-1.9-1.5-1.9h-4v3.8h-.2zm0-7.6h3.2c1.1 0 1.9-.6 1.9-1.5 0-1.1-.6-1.5-1.7-1.7h-2.8c-.2 0-.4.2-.4.4-.4 1.1-.4 1.9-.2 2.8z"/><path id="Path_71_1_" class="st0" d="M512.3 86h-4.9v-7.4c0-.4 0-.9-.2-1.3-.2-.6-.6-1.3-1.3-1.3s-1.3.4-1.5.9c-.2.6-.4 1.3-.4 1.9V86h-4.9V72.4h4.5c0 .6 0 1.3.2 1.9.9-1.5 2.3-2.3 4-2.3s3.2.9 3.8 2.3c.9-1.5 2.6-2.3 4.3-2.3 2.1-.2 4.3 1.5 4.5 3.6.2.9.2 1.7.2 2.5V86h-4.9v-7.9c0-1.5-.6-2.1-1.5-2.1-1.1.2-1.7 1.3-1.5 2.3V86h-.4z"/><path id="Path_72_1_" class="st0" d="M522.1 85.8V66.6h4.9v6.8c.9-1.1 2.1-1.7 3.6-1.7 2.1-.2 4.3.9 5.1 3 1.3 2.8 1.3 5.7.2 8.5-1.1 2.6-4 3.8-6.8 2.8-.9-.4-1.5-.9-2.1-1.5 0 .6-.2.9-.2 1.5-1.7-.2-3-.2-4.7-.2zm4.5-6.8c.2.9.4 1.9.9 2.8.4.9 1.7 1.3 2.6.9.4-.2.6-.4.9-.9.6-1.5.6-3.4 0-4.9-.4-.9-1.5-1.5-2.3-1.1-.4.2-.9.4-1.1.9-.6.6-.8 1.4-1 2.3z"/><path id="Path_73_1_" class="st0" d="M551 80.5h-9.1c.2 1.1.4 1.9 1.5 2.3s1.7.2 2.6-.9c.2-.2.4-.2.6-.2h4c-.2 2.8-3.2 5.1-7.7 4.7-3.8-.4-6.4-3.6-6.2-7.4v-.2c-.2-3.6 2.8-6.8 6.4-7h.9c5.3.2 7.2 4.2 7 8.7zm-4.9-3c.2-1.1-.6-2.1-1.7-2.3-1.1-.2-2.1.6-2.3 1.7v.6h4z"/><path id="Path_74_1_" class="st0" d="M469 79.2c-.2-3 1.5-5.7 4.5-6.8 3-1.1 6.2-.4 8.3 1.9 2.6 3.2 2.3 10.6-3.6 11.9-5 1.1-9.4-1.9-9.2-7zm4.7 0c.2.9.2 1.9.6 2.8.2.9.9 1.3 1.7 1.3s1.5-.4 1.7-1.1c.6-1.7.6-3.8 0-5.5-.2-.6-.9-1.3-1.7-1.1-.9 0-1.5.4-1.7 1.3-.2.4-.2 1.4-.6 2.3z"/><path id="Path_75_1_" class="st0" d="M498.1 79.2c.2 3.6-2.3 7-6.2 7.2h-1.1c-4.5 0-7-3-7-7.7-.2-3.6 2.8-6.8 6.4-7h.9c3.8-.2 7 2.8 7 6.4v1.1zm-4.9 0c0-.9-.4-1.9-.6-2.8-.2-.6-.9-1.3-1.7-1.1-.9 0-1.5.4-1.7 1.3-.6 1.7-.6 3.6 0 5.3.2.9.9 1.3 1.7 1.3s1.5-.4 1.7-1.1c.4-1 .6-2.1.6-2.9z"/><path id="Path_76_1_" class="st0" d="M467.7 86h-4.9V66.6h4.9V86z"/><path id="Path_77_1_" class="st0" d="M552.3 72.2h4.5v1.9c.6-.6 1.3-1.3 2.1-1.9.9-.4 1.7-.6 2.8-.6v4.5h-1.1c-1.5-.2-3 .9-3.2 2.3v.2c-.2 1.5-.2 3.2-.2 4.7v2.3h-4.9V72.2z"/><path id="Path_42498_1_" class="st0" d="M128.5 15.7c0-3.6.9-3.6 5.7-4.3V8.6h-19.3v2.8c5.1.9 5.7.9 5.7 4.3V52c0 3.6-.9 3.6-5.7 4.3v2.8h37.6l.9-11.7h-3c-1.5 6.4-1.9 8.1-6.4 8.1l-15.5.6V15.7zm-32 19.7c3.6.2 3.6 1.9 4.3 7h3V25h-3c-.9 4.9-.9 6.8-4.3 7l-9.1.4V11.8l14.6.5c4.3.2 4.5 1.7 6 8.3h3l-.4-11.7H73.7v2.8c5.1.9 5.7.9 5.7 4.3v36.3c0 3.6-.9 3.6-5.7 4.3v2.8h37.6l.9-11.7h-3c-1.5 6.4-1.9 8.1-6.4 8.1l-15.5.6v-21h9.2z"/><path id="Path_42499_1_" class="st0" d="M534 33.9c0-13.6 6.8-23 16.6-23s16.6 9.4 16.6 23-6.8 23-16.6 23-16.6-9.4-16.6-23m-8.5 0c-.4 13.8 10.6 25.5 24.4 25.9 13.8.4 25.5-10.6 25.9-24.4v-1.3c.4-13.8-10.6-25.5-24.4-25.9-13.8-.4-25.5 10.6-25.9 24.4v1.3M516.2 59h12.3v-2.8c-3.8-.9-4.3-1.1-6.4-4L510.2 36c9.1-2.3 11.9-8.1 11.9-14 0-7.9-5.7-13.4-16.6-13.4h-21.7v2.8c5.1.9 5.7.9 5.7 4.3V52c0 3.6-.9 3.6-5.7 4.3v2.8h19.3v-2.8c-5.1-.9-5.7-.9-5.7-4.3V36.9h4.7L516.2 59zm-18.7-25.1V11.6h6.4c8.3 0 10.4 5.3 10.4 11.1 0 6.4-2.1 11.1-11.9 11.1l-4.9.1zm-32.6 1.5c3.6.2 3.6 1.9 4.3 7h3V25h-3c-.9 4.9-.9 6.8-4.3 7l-9.1.4V11.8l14.7.4c4.3.2 4.5 1.7 6 8.3h3L479 8.9h-36.8v2.8c5.1.9 5.7.9 5.7 4.3v36.3c0 3.6-.9 3.6-5.7 4.3v2.8h37.6l.9-11.7h-3c-1.5 6.4-1.9 8.1-6.4 8.1l-15.5.6v-21h9.1zM424.6 52c0 3.6-.9 3.6-5.7 4.3v2.8h19.3v-2.8c-5.1-.9-5.7-.9-5.7-4.3V15.7c0-3.6.9-3.6 5.7-4.3V8.6h-19.3v2.8c5.1.9 5.7.9 5.7 4.3V52zm-10-39.7C409.7 9.5 404.2 8 398.4 8 384.2 8 374 18.6 374 33.9c0 15.1 10.2 25.9 24.4 25.9 5.7 0 11.3-1.5 16.2-4.3l.9-11.7h-3C410.8 54 405.1 57 398.9 57c-9.8 0-16.6-9.4-16.6-23s6.6-23 16.6-23c5.7 0 11.5 3.2 13.2 13.2h3l-.5-11.9zM333 52c0 3.6-1.3 3.6-6.4 4.3v2.8h16.6v-2.8c-5.1-.9-6.6-.9-6.6-4.3l-.4-35.9h.9l27.2 43.1h4.7V15.4c0-3.6 1.3-3.6 6.4-4.3V8.3h-16.6v2.8c5.1.9 6.6.9 6.6 4.3l.4 30h-.9l-23.2-37h-15.1v2.8c5.1.9 6.4.9 6.4 4.3V52zm-44-10h16.6l3.8 10c1.3 3.4.6 3.6-4.3 4.3v2.8h19.3v-2.8c-4-.9-4.7-.9-6-4.3L302 8.2h-4.5L282 52c-1.3 3.4-1.9 3.6-7.4 4.3v2.8h16.6v-2.8c-5.3-.9-6.4-.9-5.1-4.3l2.9-10zm8.7-23.8l7 20.8H290l7-20.8h.7zM235.9 52c0 3.6-1.3 3.6-6.4 4.3v2.8h16.6v-2.8c-5.1-.9-6.6-.9-6.6-4.3l-.4-35.9h.9l27 43.1h4.7V15.4c0-3.6 1.3-3.6 6.4-4.3V8.3h-16.6v2.8c5.1.9 6.6.9 6.6 4.3l.4 30h-.6l-23.2-37h-15.1v2.8c5.1.9 6.4.9 6.4 4.3l-.1 36.5zm-23.8 0c0 3.6-.9 3.6-5.7 4.3v2.8h19.3v-2.8c-5.1-.9-5.7-.9-5.7-4.3V15.7c0-3.6.9-3.6 5.7-4.3V8.6h-19.6v2.8c5.1.9 5.7.9 5.7 4.3l.3 36.3zm-33-15.5l9.1.4c3.6.2 3.6 1.9 4.3 7h3V26.5h-3c-.9 4.9-.9 6.8-4.3 7l-9.1.4V11.8l14.7.4c4.3.2 4.5 1.7 6 8.3h3l-.4-11.7h-36.8v2.8c5.1.9 5.7.9 5.7 4.3v36.3c0 3.6-.9 3.6-5.7 4.3v2.8h19.3v-2.8c-5.1-.9-5.7-.9-5.7-4.3l-.1-15.7z"/><path id="Path_42504_1_" class="st0" d="M7.8 47.2l.9-2.5c-.3.9-.6 1.8-.9 2.5z"/><path id="Path_42505_1_" class="st0" d="M8.3 13.9c.1-.1.3-.1.4-.3 0-.1.1-.1.3-.3l-.4.3-.3.3z"/><path id="Path_42506_1_" class="st0" d="M44.1 51.7l5.8.9h.1c.4-2.4.7-4.6.9-7-2.1-.3-6-.9-6-.9l-.3 1.9-1.2 5.1h.7z"/><path id="Path_42507_1_" class="st0" d="M50.8 52.6c1.6.1 3.4.1 5.1 0 .4-2.2.7-4.6.9-6.9-1.6.1-3.1.1-4.8-.1h-.3c-.1 2.4-.4 4.8-.9 7z"/><path id="Path_42508_1_" class="st0" d="M14 21.6c-1-.7-2.1-1.6-3-2.5-2.1 1.6-4 3.4-5.8 5.4 1 1 2.2 2.1 3.6 3.1 1.4-2.1 3.2-4.1 5.2-6z"/><path id="Path_42509_1_" class="st0" d="M5 55.5c.4-1.9.7-4 1.3-6-2.1-1.2-3.9-2.4-5.4-3.4-.3 1.6-.4 3.3-.6 5.1v1.6c1.4.9 3 1.8 4.7 2.7z"/><path id="Path_42510_1_" class="st0" d="M3.6 35.7c1.2-2.1 2.4-4.2 3.7-6.1-1.3-1-2.5-2.1-3.7-3.1-1.3 1.6-2.5 3.4-3.6 5.2v1.2c1.2.8 2.4 1.9 3.6 2.8z"/><path id="Path_42511_1_" class="st0" d="M.6 43.6c.4-2.1 1.2-4.2 2.1-6.1-.9-.7-1.8-1.3-2.5-1.9v7.7c.1 0 .3.2.4.3z"/><path id="Path_42512_1_" class="st0" d="M12.9 17.7c.9.9 1.8 1.6 2.8 2.4 2.4-2.2 5.2-4.2 8.1-5.7-.7-.4-1.3-.9-1.9-1.5-3.1 1.2-6.1 2.8-9 4.8z"/><path id="Path_42513_1_" class="st0" d="M20.3 22.8s.1 0 0 0c2.1-2.4 4.3-4.6 6.9-6.6-.9-.6-1.8-1-2.5-1.5-3 1.5-5.8 3.3-8.2 5.5 1.1 1.1 2.4 1.8 3.8 2.6z"/><path id="Path_42514_1_" class="st0" d="M14.4 22c-1.9 1.8-3.6 3.9-5.2 6 1.6 1.2 3.3 2.1 5.1 3.1h.1c1.3-2.2 2.8-4.3 4.5-6.3h-.1c-1.8-1-3.2-2-4.4-2.8z"/><path id="Path_42515_1_" class="st0" d="M1.1 43.9c1.5 1 3.3 2.2 5.5 3.6.6-2.1 1.4-4.2 2.3-6.1C7 40.4 5 39.2 3.2 38c-.9 1.9-1.5 3.8-2.1 5.9z"/><path id="Path_42516_1_" class="st0" d="M.2 60.4z"/><path id="Path_42517_1_" class="st0" d="M1.1 22.6c-.3-.4-.4-1-.6-1.6-.1.1-.3.3-.3.4v2.4c.3-.4.6-.9.9-1.2z"/><path id="Path_42518_1_" class="st0" d="M11.6 61l-.1-.3-3.1-1.5L6 58h-.3c0 1.2-.1 2.2-.1 3.1 0-.1 6-.1 6-.1z"/><path id="Path_42519_1_" class="st0" d="M21.2 23.4l1.9 1 .9.4 1.9.9.6-.9 1-1.6 3.3-4.8-.3-.1-1.6-.7-.3-.1-.6-.4c-2.5 1.6-4.7 3.7-6.8 6.3z"/><path id="Path_42520_1_" class="st0" d="M20.6 11.1c-3.3.9-6.6 2.2-9.6 4 .4.7.9 1.3 1.5 1.9 2.8-1.9 5.8-3.6 9-4.8-.3-.2-.6-.7-.9-1.1z"/><path id="Path_42521_1_" class="st0" d="M4.8 57.4c-1.6-.7-3.1-1.8-4.6-2.7 0 2.1.3 4.2.7 6.3h3.7c.1-1 .1-2.2.2-3.6z"/><path id="Path_42522_1_" class="st0" d="M9.8 39.4c1.2-2.2 2.4-4.3 3.4-6.3-1.8-1-3.4-2.1-5.1-3.3-1.3 1.9-2.5 4-3.7 6.1 1.6 1.3 3.4 2.5 5.4 3.5z"/><path id="Path_42523_1_" class="st0" d="M6.2 56.1l2.2 1.2.6.3.7.3 2.5 1 .9-3.1.7-2.7-1-.4-5.2-2.5-.3-.1c-.4 1.9-.9 4-1.2 6h.1z"/><path id="Path_42524_1_" class="st0" d="M21 26.1l-1.3-.8c-1.2 1.6-2.5 3.4-3.9 5.5l-.6.7 1.5.9 1 .6 1.8.9 1.6.7.6-1.2v-.1l3-5.4-3.7-1.8z"/><path id="Path_42525_1_" class="st0" d="M20.4 10.8c-.1-.3-.1-.6 0-.9-3.4.6-6.9 1.8-10 3.4 0 .4.3 1 .4 1.5 3-1.8 6.3-3.1 9.6-4z"/><path id="Path_42526_1_" class="st0" d="M6.8 17.4c.6-.4 1.2-.9 1.8-1.3-.3-.6-.3-1.2-.1-1.8-2.2 1.3-4.5 3-6.4 4.8.1.7.3 1.3.6 1.9 1.2-1.2 2.6-2.6 4.1-3.6z"/><path id="Path_42527_1_" class="st0" d="M8.9 16.5c-.6.4-1.2.7-1.8 1.2-1.5 1.2-3 2.4-4.3 3.7.6.9 1.2 1.8 1.8 2.5 1.8-1.9 3.7-3.9 5.8-5.4-.6-.5-1.2-1.3-1.5-2z"/><path id="Path_42528_1_" class="st0" d="M3.3 25.8c-.7-.7-1.3-1.6-1.9-2.7-.4.4-.7.9-1.2 1.5v5.7c.9-1.7 1.9-3.2 3.1-4.5z"/><path id="Path_42529_1_" class="st0" d="M30 14.2c1.9-1.2 4-2.1 6.1-2.7 0 0-6 .4-8.1 1.6.7.4 1.3.8 2 1.1z"/><path id="Path_42530_1_" class="st0" d="M35.3 10.9c-3.1-.1-6.1.1-9.1.7.3.3.7.6 1.2.9.1-.1 1.6-.8 7.9-1.6z"/><path id="Path_42531_1_" class="st0" d="M34.7 10.3c-3.1-.4-6.4-.4-9.6 0 .1.3.4.6.6.9 3-.6 6-.9 9-.9z"/><path id="Path_42532_1_" class="st0" d="M34.5 9.9s-3.1-1.2-9.9-.7c0 .3 0 .6.1.9 3.4-.7 6.5-.7 9.8-.2z"/><path id="Path_42533_1_" class="st0" d="M32.9 9.3s-1.8-.9-7.8-.7l-.3.3c2.7-.2 5.4-.1 8.1.4z"/><path id="Path_42534_1_" class="st0" d="M33.5 9c-2.2-.7-4.8-1.2-7.2-1.2-.3 0-.6.1-.9.3 2.8 0 5.5.3 8.1.9z"/><path id="Path_42535_1_" class="st0" d="M28.1 7.6h.3-.7c2.5.1 4.9.6 7.3 1.3-2.3-.8-4.7-1.3-6.9-1.3z"/><path id="Path_42536_1_" class="st0" d="M49.2 23.7c.1.3.3.6.3 1 .9 2.7 1.6 5.5 1.9 8.2h.3c1.2.1 2.5.1 3.7.1-.4-1.5-.9-3.1-1.5-4.5-.6-1.6-1.5-3.3-2.4-4.8h-2.3z"/><path id="Path_42537_1_" class="st0" d="M48.4 23.5h-.3c-.9-.1-1.9-.3-2.8-.4 0 0 .1.6.3 1 .1.6.1 1.2.3 1.8.1 1.8.4 5.5.4 5.5v.6l1.3.1 2.1.3 1.2.1c-.3-2.7-1-5.4-1.9-7.9-.3-.3-.4-.6-.6-1.1z"/><path id="Path_42538_1_" class="st0" d="M56.7 35.7c.4 2.5.7 5.2.7 7.8 1.2-.1 2.2-.3 3.3-.9-.1-2.7-.4-5.2-1.2-7.8-.9.4-1.9.7-2.8.9z"/><path id="Path_42539_1_" class="st0" d="M56.1 33c.9-.1 1.8-.3 2.7-.6-1-3.1-2.7-6.1-4.6-8.8 0-.1-.1-.1-.1-.3-.4.3-1 .4-1.6.4.9 1.5 1.6 3.1 2.2 4.6.5 1.5.9 3 1.4 4.7z"/><path id="Path_42540_1_" class="st0" d="M61.2 42.4c.6-.3 1-.7 1.3-1.2v-.6c-.1-2.1-.6-4.3-1.2-6.3l-.1-.6-.2-.3c-.1.6-.6 1-1 1.3.6 2.5 1 5 1.2 7.7z"/><path id="Path_42541_1_" class="st0" d="M58.5 27.1l-3.3-4.9-.2-.3c0 .4-.3.7-.6.9 0 .1.1.1.1.3 1.9 2.7 3.4 5.7 4.6 9 .4-.3.7-.6 1-1l-.1-.6c-.3-1.1-.9-2.3-1.5-3.4z"/><path id="Path_42542_1_" class="st0" d="M60.3 55.8c.4-.9.7-1.6.9-2.5V53c-.4.3-.9.6-1.5.9-.6 2.1-1.3 4-2.2 6 .4-.3.9-.6 1.2-1 0 0 0-.1.1-.3v-.1s0-.1.1-.1l.1-.1c.7-1 1.1-1.8 1.3-2.5z"/><path id="Path_42543_1_" class="st0" d="M59.4 54c-1 .3-2.2.6-3.3.6-.4 1.5-.9 3-1.5 4.3-.3.6-.4 1.2-.7 1.6 1-.1 2.2-.3 3.3-.7.7-1.8 1.6-3.7 2.2-5.8z"/><path id="Path_42544_1_" class="st0" d="M47.1 60.7c.9-1.9 1.8-4 2.5-6.1l-1.2-.1-5.4-1-.9 2.7-1.5 3.4 6.5 1.1z"/><path id="Path_42545_1_" class="st0" d="M48 60.9c1.8.1 3.4.1 5.2 0l.9-1.9c.6-1.3 1-2.7 1.5-4.2-1.6.1-3.3.1-5.1 0h-.1c-.8 1.9-1.7 4-2.4 6.1z"/><path id="Path_42546_1_" class="st0" d="M59.8 51.7c.4-2.2.7-4.6.9-6.9-1 .4-2.1.7-3.3.9 0 2.2-.3 4.6-.9 6.9 1.2-.1 2.3-.4 3.3-.9z"/><path id="Path_42547_1_" class="st0" d="M61.2 44.5c0 2.2-.3 4.6-.7 6.9.6-.3 1-.7 1.5-1.2.3-.9.4-1.9.6-2.8.1-1.2.3-2.4.1-3.4v-.7c-.3.5-.9.9-1.5 1.2z"/><path id="Path_42548_1_" class="st0" d="M55 21.1v.4l.3.3 3.7 5.7c.4.7.9 1.6 1.2 2.5l-.1-.9-.3-.8c-.1-.6-.4-1.2-.9-1.6L55 21.1z"/><path id="Path_42549_1_" class="st0" d="M23.6 45.7l1.3.6.7.3 1.5-3.9.9-2.8-2.4-.9-1.3-.6-2.1-.7-1-.4-1.5 3.3-1.3 3.1.7.3 2.7 1 1.8.7z"/><path id="Path_42550_1_" class="st0" d="M40.5 9.9l-.3.6h1.2l-.9-.6z"/><path id="Path_42551_1_" class="st0" d="M34.4 26.5l-.7 2.2 4.2 1.3 1 .3h.1l.1-.6.1-.7.7-7.5-3.4-1.2-2.1 6.2z"/><path id="Path_42552_1_" class="st0" d="M39.3 9.4l-1-.3.9.7.1-.4z"/><path id="Path_42553_1_" class="st0" d="M34.1 8.2l-1.8-.3 3.9 1.5-2.1-1.2z"/><path id="Path_42554_1_" class="st0" d="M36.9 9l-1.2-.3 2.1 1-.9-.7z"/><path id="Path_42555_1_" class="st0" d="M45.1 34.6l-1.5-.3-4-1.2-1.2 6.2v.1l-.3 1.3 1.8.4 1.9.4 1.2.3 1.6.3.3-1.5.6-6v-.3h-.4v.3z"/><path id="Path_42556_1_" class="st0" d="M42.6 10.9h-1.2l2.2.6-1-.6z"/><path id="Path_42557_1_" class="st0" d="M46.8 13l-1.7-.7-2.4-.6 4.1 1.3z"/><path id="Path_42558_1_" class="st0" d="M42.6 51.4l1-4.5.4-2.4-3-.6-1.2-.3-2.7-.7-.6 2.5-1.2 3.7-.1.6 7.4 1.7z"/><path id="Path_42559_1_" class="st0" d="M14.7 49.9l.9-2.2.9-2.2.1-.3-.9-.4L10 42c0 .1-.1.3-.3.6l-.6 1.5c0 .3-.1.4-.3.7L8 47.4c0 .3-.1.4-.3.7l1.5.7 5.2 2.5.3-1.4z"/><path id="Path_42560_1_" class="st0" d="M8.7 44.7l-.9 2.5.9-2.5z"/><path id="Path_42561_1_" class="st0" d="M19.1 39.1l1.2-2.4-2.5-1-1-.4-2.8-1.6-.6 1.2c-.9 1.6-1.8 3.3-2.7 5.1l6.6 3.1.3-.6 1.5-3.4z"/><path id="Path_42562_1_" class="st0" d="M32.7 59.8l-1-.3-.6 1.5h6.1l-4.5-1.2z"/><path id="Path_42563_1_" class="st0" d="M30.6 59.2l-1.6-.4-.6-.1-2.4-1-1.8-.6-1-.3-.9 2.5-.6 1.6h8.2l.7-1.7z"/><path id="Path_42564_1_" class="st0" d="M54.1 35.7c-.7 0-1.5-.1-2.4-.1 0 .9.1 1.6.1 2.5v5.4c.9.1 1.9.1 2.8.1h2v-.1c0-2.5-.3-5.2-.7-7.8h-1.8z"/><path id="Path_42565_1_" class="st0" d="M51.1 35.4c-.4 0-.7-.1-1.2-.1l-.9-.2-2.4-.3h-.4v1.3l-.4 4-.3 2.2h.3c1.3.3 2.5.6 3.6.7h.1c.6 0 1.2.1 1.6.1 0-1.6.1-3.4 0-5.2.2-.7.2-1.6 0-2.5z"/><path id="Path_42566_1_" class="st0" d="M22.7 54.6l.6-1.8.3-.9.1-.3V51l.1-.1.1-.3.3-1 .3-.7h-.1l-.8-.6-1.2-.4-1.9-.7-3.1-1.3h-.1l-.3.3-.8 2.1-.7 2.1-.1.6-.3 1 .3.1.9.3 2.8 1.2 1.6.6 1.2.4h.8z"/><path id="Path_42567_1_" class="st0" d="M29 47.7l1.9.6 2.7.9.7.1 1-3.3.9-3.4-1-.3-2.1-.6-1.3-.4-2.5-1-.9 2.7-1.5 3.9.6.3 1.5.5z"/><path id="Path_42568_1_" class="st0" d="M38.1 59.2l1.6.4 1.5-3.6.9-2.5-6.3-1.5-1-.3v.3l-.9 2.3-.9 2.2-.6 1.2 5.7 1.5z"/><path id="Path_42569_1_" class="st0" d="M31.1 57.4l.3.1.4-1 .1-.6.7-2.1.7-2.1.1-.4h-.1l-3.3-1-1.9-.6-1.1-.4-.9-.3H26l-.3.7-.3 1-.1.3-.2.3v.7l-.1.3-.3.9-.7 2 .4.1 1.2.4 1.6.6 2.8.9 1.1.2z"/><path id="Path_42570_1_" class="st0" d="M26 36.6l3 1.2 1.3-3.7 1.2-3.4-2.5-1-2.1-.9-1-.4-2.9 4.9-.9 1.8 1.5.6 2.4.9z"/><path id="Path_42571_1_" class="st0" d="M37.6 13.9l.6-1.6-1.2.9c-.4.4-1 .9-1.5 1.3l-1.6 1.8 2.4 1 1.3-3.4z"/><path id="Path_42572_1_" class="st0" d="M43.2 31.6l2.1.4-.4-6.6c0-.7-.1-1.6-.3-2.4v-.1c-.1 0-.4-.1-.6-.1-1.6-.4-2.7-.7-2.7-.7l-.6 5.8-.3 1.9-.1 1 2.1.6.8.2z"/><path id="Path_42573_1_" class="st0" d="M32.1 18.7l-4.2 6.1-.4.7-.3.6h.1l1 .4 4.2 1.6.9-2.2 2.1-6-3.4-1.2z"/><path id="Path_42574_1_" class="st0" d="M37.5 32.5l-2.1-.7-2.7-.9-1.2 3.4-1.3 3.7 3 1 2.4.7 1.4.6.6-1.9 1-5.7-1.1-.2z"/><path id="Path_42575_1_" class="st0" d="M48.4 18.1c.4.6.9 1.2 1.3 1.6.4 0 .7-.1 1-.3-2.2-2.4-4.8-4.3-7.6-6.1 2 1.5 3.7 3 5.3 4.8z"/><path id="Path_42576_1_" class="st0" d="M21.2 58.9l.9-2.5-1-.3-1.9-.8-2.4-.9-.6-.3-1.5-.7-.6 1.8-1 4 .3.1 1.8.7 1.6.6h3.6l.8-1.7z"/><path id="Path_42577_1_" class="st0" d="M47.4 19.8H49.1c-.3-.4-.7-.9-1.2-1.3-1.5-1.6-3-3.1-4.8-4.3 1.7 1.5 3.1 3.5 4.3 5.6z"/><path id="Path_42578_1_" class="st0" d="M8.3 13.9l.1-.1.4-.3.2-.2-3 1.8-.7.6 1.5-.9c.6-.3.9-.6 1.5-.9z"/><path id="Path_42579_1_" class="st0" d="M8.4 13.9l.4-.3-.4.3z"/><path id="Path_42580_1_" class="st0" d="M51.3 19.3c.1-.1.3-.3.3-.6-2.1-2.2-4.5-4-7.3-5.2 2.6 1.6 4.9 3.6 7 5.8z"/><path id="Path_42581_1_" class="st0" d="M51.7 18.3V18c-4-3.7-6-4.2-6-4.2 2.1 1.2 4.2 2.7 6 4.5z"/><path id="Path_42582_1_" class="st0" d="M51.4 17.5l-.3-.6c-1.8-1.6-3.7-2.8-6-3.7 2.3 1.2 4.5 2.5 6.3 4.3z"/><path id="Path_42583_1_" class="st0" d="M50.7 16.2l-.3-.4c-1.8-1.5-3.9-2.7-6.3-3.4 2.4 1.1 4.6 2.3 6.6 3.8z"/><path id="Path_42584_1_" class="st0" d="M32.7 13.6l-1.6 1 .4.3 1.8.7c1.2-1.3 2.4-2.5 3.7-3.6l.3-.1-2.3 1c-.9 0-1.5.3-2.3.7z"/><path id="Path_42585_1_" class="st0" d="M21 8.7s-8.2 1.8-10 3.6c3-1.3 6.3-2.4 9.4-3.1.2-.1.5-.4.6-.5z"/><path id="Path_42586_1_" class="st0" d="M21.9 8.1c-2.8.6-5.7 1.5-8.4 2.7 2.5-.9 5.1-1.6 7.8-2.2l.6-.5z"/><path id="Path_42587_1_" class="st0" d="M59.4 27.1c-1.4-2.8-3.2-5.4-5.1-7.8.3.3.4.6.4 1 0-.1 3.5 4.7 4.7 6.8z"/><path id="Path_42588_1_" class="st0" d="M61 32.7c.4 1.2.9 2.4 1.2 3.7-.1-1.5-.6-2.8-1.2-4.2v.5z"/><path id="Path_42589_1_" class="st0" d="M40 18.3c0-1.9-.3-3.7-.6-5.7l-1.8 4.9 2.4.8z"/><path id="Path_42590_1_" class="st0" d="M43.3 19.2c-.6-2.1-1.6-4.2-2.8-6 .6 1.8.7 3.6.6 5.4l2.2.6z"/><path id="Path_42591_1_" class="st0" d="M46.6 19.6c-1.3-2.4-3.1-4.6-5.1-6.6 1.3 1.9 2.4 4 3 6.1.6.4 1.4.5 2.1.5z"/><path class="st0" d="M1.2 73.4h6.5v2.3h-4v2.8h3.4v2.2H3.7v3h4.1V86H1.2V73.4zM8.7 79.7c0-3.7 2.8-6.5 6.6-6.5 1.7 0 2.9.6 3.7 1.2l-.7 2.2c-.6-.4-1.7-1-3-1-2.3 0-3.9 1.8-3.9 4.2 0 2.4 1.6 4.2 3.9 4.2 1.4 0 2.5-.6 3.1-1l.7 2.2c-.8.6-2 1.2-3.9 1.2-3.8-.2-6.5-3-6.5-6.7zM19.8 79.7c0-3.7 2.7-6.5 6.6-6.5s6.6 2.9 6.6 6.5c0 3.7-2.7 6.5-6.6 6.5s-6.6-2.8-6.6-6.5zm2.6 0c0 2.4 1.6 4.2 3.9 4.2s3.9-1.7 3.9-4.2c0-2.4-1.6-4.2-3.9-4.2s-3.9 1.8-3.9 4.2zM36.7 77.5V86h-2.5V73.4h2.6l5.4 8.6v-8.6h2.5V86h-2.5l-5.5-8.5zM45.9 79.7c0-3.7 2.7-6.5 6.6-6.5S59 76 59 79.7s-2.7 6.5-6.6 6.5-6.5-2.8-6.5-6.5zm2.6 0c0 2.4 1.6 4.2 3.9 4.2s3.9-1.7 3.9-4.2c0-2.4-1.6-4.2-3.9-4.2-2.2 0-3.9 1.8-3.9 4.2zM67.2 82l3.6-8.6h3.3V86h-2.4v-9l-3.3 7.9H66L62.7 77v9h-2.4V73.4h3.3l3.6 8.6zM76 73.4h2.5V86H76V73.4zm1.2-3.3h2.6l-1.7 2.6H76l1.2-2.6zM83.1 82.8L82 86h-2.6l4.5-12.6h2.7L91 86h-2.6l-1.1-3.2h-4.2zm2.1-6.7l-1.5 4.5h2.9l-1.4-4.5zM92.6 86.2c-.8-.2-1.2-.8-1.2-1.5 0-.8.7-1.5 1.5-1.5.9 0 1.6.6 1.6 1.7 0 1.6-.9 3.1-2 3.9l-1-1.1c.4-.3 1-.9 1.1-1.5zM106.7 82l3.6-8.6h3.3V86h-2.4v-9l-3.3 7.9h-2.4l-3.3-7.9v9h-2.4V73.4h3.3l3.6 8.6zM115.6 73.4h6.5v2.3h-3.9v2.8h3.4v2.2h-3.4v3h4.1V86h-6.6V73.4zM123.8 73.4h3.8c2.8 0 4.3 1.7 4.3 3.7 0 1.5-.8 2.7-1.9 3.3l3 5.5h-2.8l-2.4-4.9h-1.4v5h-2.5V73.4zm3.7 5.5c.9 0 1.7-.6 1.7-1.7 0-1-.7-1.6-1.9-1.6h-1.1v3.3h1.3zM133.2 79.7c0-3.7 2.8-6.5 6.6-6.5 1.7 0 2.9.6 3.7 1.2l-.7 2.2c-.6-.4-1.7-1-3-1-2.3 0-3.9 1.8-3.9 4.2 0 2.4 1.6 4.2 3.9 4.2 1.4 0 2.5-.6 3.1-1l.7 2.2c-.8.6-2 1.2-3.9 1.2-3.9-.2-6.5-3-6.5-6.7zM147.5 82.8l-1.1 3.2h-2.6l4.5-12.6h2.7l4.5 12.6h-2.6l-1.1-3.2h-4.3zm2.1-6.7l-1.5 4.5h2.9l-1.4-4.5zM156.3 73.4h3.3c4.1 0 6.7 2.4 6.7 6.3 0 4-2.6 6.3-6.7 6.3h-3.3V73.4zm3.5 10.4c2.4 0 3.9-1.4 3.9-4.1 0-2.6-1.5-4.1-3.9-4.1h-.9v8.2h.9zM167 79.7c0-3.7 2.7-6.5 6.6-6.5s6.6 2.9 6.6 6.5c0 3.7-2.7 6.5-6.6 6.5s-6.6-2.8-6.6-6.5zm2.6 0c0 2.4 1.6 4.2 3.9 4.2s3.9-1.7 3.9-4.2c0-2.4-1.6-4.2-3.9-4.2-2.2 0-3.9 1.8-3.9 4.2zM188.8 75.9l-2.1 1c-.3-.6-.7-1.4-1.8-1.4-.9 0-1.4.5-1.4 1.2 0 2.1 5.5 1.8 5.5 5.7 0 2.2-1.6 3.8-4.2 3.8-2.7 0-3.8-1.9-4.2-2.9l2.1-1c.3.8 1 1.6 2.2 1.6.9 0 1.5-.5 1.5-1.3 0-2.2-5.4-1.8-5.4-5.8 0-2.1 1.5-3.6 4-3.6s3.5 1.8 3.8 2.7zM197.1 80.2l-3.9-6.8h2.9l2.3 4.5 2.3-4.5h2.9l-3.9 6.8V86h-2.5v-5.8zM210.9 77.5V86h-2.5V73.4h2.6l5.4 8.6v-8.6h2.5V86h-2.5l-5.5-8.5zM220.8 73.4h6.5v2.3h-3.9v2.8h3.4v2.2h-3.4v3h4.1V86h-6.6V73.4zM239.8 75.2l-1.6 1.7c-.4-.4-1.5-1.4-3.3-1.4-2.5 0-4 1.8-4 4.2 0 2.6 1.7 4.2 4 4.2 1.8 0 2.8-.7 3-1v-1.5h-2.4v-2.1h4.8v5c-1.4 1.2-2.9 2.1-5.5 2.1-3.6 0-6.5-2.6-6.5-6.5 0-3.6 2.7-6.5 6.5-6.5 2.7-.2 4.4 1.1 5 1.8zM241.3 79.7c0-3.7 2.7-6.5 6.6-6.5s6.6 2.9 6.6 6.5c0 3.7-2.7 6.5-6.6 6.5s-6.6-2.8-6.6-6.5zm2.7 0c0 2.4 1.6 4.2 3.9 4.2s3.9-1.7 3.9-4.2c0-2.4-1.6-4.2-3.9-4.2s-3.9 1.8-3.9 4.2zM255.1 79.7c0-3.7 2.8-6.5 6.6-6.5 1.7 0 2.9.6 3.7 1.2l-.7 2.2c-.6-.4-1.7-1-3-1-2.3 0-3.9 1.8-3.9 4.2 0 2.4 1.6 4.2 3.9 4.2 1.4 0 2.5-.6 3.1-1l.7 2.2c-.8.6-2 1.2-3.9 1.2-3.9-.2-6.5-3-6.5-6.7zM266.8 73.4h2.5V86h-2.5V73.4zM270.6 79.7c0-3.7 2.7-6.5 6.6-6.5s6.6 2.9 6.6 6.5c0 3.7-2.7 6.5-6.6 6.5s-6.6-2.8-6.6-6.5zm2.7 0c0 2.4 1.6 4.2 3.9 4.2s3.9-1.7 3.9-4.2c0-2.4-1.6-4.2-3.9-4.2s-3.9 1.8-3.9 4.2zM292.4 75.9l-2.1 1c-.3-.6-.7-1.4-1.8-1.4-.9 0-1.4.5-1.4 1.2 0 2.1 5.5 1.8 5.5 5.7 0 2.2-1.6 3.8-4.2 3.8-2.7 0-3.8-1.9-4.2-2.9l2.1-1c.3.8 1 1.6 2.2 1.6.9 0 1.5-.5 1.5-1.3 0-2.2-5.4-1.8-5.4-5.8 0-2.1 1.5-3.6 4-3.6s3.5 1.8 3.8 2.7zM297.9 73.4h6.5v2.3h-3.9v2.8h3.4v2.2h-3.4v3h4.1V86H298V73.4zM308.6 77.5V86h-2.5V73.4h2.6l5.4 8.6v-8.6h2.5V86h-2.5l-5.5-8.5zM325.1 82.8L324 86h-2.6l4.5-12.6h2.7l4.5 12.6h-2.6l-1.1-3.2h-4.3zm2.2-6.7l-1.5 4.5h2.9l-1.4-4.5zM334 73.4h2.5v10.3h4.1V86H334V73.4zM341.7 73.4h2.5V86h-2.5V73.4zM348.8 82.8l-1.1 3.2h-2.6l4.5-12.6h2.7l4.5 12.6h-2.6l-1.1-3.2h-4.3zm2.2-6.7l-1.5 4.5h2.9l-1.4-4.5zM360.1 77.5V86h-2.5V73.4h2.6l5.4 8.6v-8.6h2.5V86h-2.5l-5.5-8.5zM369.4 84.3l6.2-8.7h-6v-2.3h9.4V75l-6.2 8.7h6.3V86h-9.6v-1.7zM383 82.8l-1.1 3.2h-2.6l4.5-12.6h2.7L391 86h-2.6l-1.1-3.2H383zm2.2-6.7l-1.5 4.5h2.9l-1.4-4.5zM395.2 79.7c0-3.7 2.8-6.5 6.6-6.5 1.7 0 2.9.6 3.7 1.2l-.7 2.2c-.6-.4-1.7-1-3-1-2.3 0-3.9 1.8-3.9 4.2 0 2.4 1.6 4.2 3.9 4.2 1.4 0 2.5-.6 3.1-1l.7 2.2c-.8.6-2 1.2-3.9 1.2-3.9-.2-6.5-3-6.5-6.7zM406.3 79.7c0-3.7 2.7-6.5 6.6-6.5s6.6 2.9 6.6 6.5c0 3.7-2.7 6.5-6.6 6.5s-6.6-2.8-6.6-6.5zm2.6 0c0 2.4 1.6 4.2 3.9 4.2s3.9-1.7 3.9-4.2c0-2.4-1.6-4.2-3.9-4.2s-3.9 1.8-3.9 4.2zM423.1 77.5V86h-2.5V73.4h2.6l5.4 8.6v-8.6h2.5V86h-2.5l-5.5-8.5z"/></svg>